<mxfile host="app.diagrams.net" modified="2023-10-13T19:30:15.275Z" agent="Mozilla/5.0 (Macintosh; Intel Mac OS X 10_15_7) AppleWebKit/605.1.15 (KHTML, like Gecko) Version/17.0 Safari/605.1.15" etag="UNVAhLBqi7EKPIuPCjAl" version="22.0.4" type="github">
  <diagram name="Page-1" id="axc-MQ2ktnvRU2us6-_k">
    <mxGraphModel dx="3188" dy="1087" grid="1" gridSize="10" guides="1" tooltips="1" connect="1" arrows="1" fold="1" page="1" pageScale="1" pageWidth="850" pageHeight="1100" math="0" shadow="0">
      <root>
        <mxCell id="0" />
        <mxCell id="1" parent="0" />
        <mxCell id="Vw3OSJddMKpgf3IfkEd6-20" value="" style="edgeStyle=orthogonalEdgeStyle;rounded=0;orthogonalLoop=1;jettySize=auto;html=1;" edge="1" parent="1" source="Vw3OSJddMKpgf3IfkEd6-2" target="Vw3OSJddMKpgf3IfkEd6-4">
          <mxGeometry relative="1" as="geometry" />
        </mxCell>
        <mxCell id="Vw3OSJddMKpgf3IfkEd6-22" value="" style="edgeStyle=orthogonalEdgeStyle;rounded=0;orthogonalLoop=1;jettySize=auto;html=1;" edge="1" parent="1" source="Vw3OSJddMKpgf3IfkEd6-2" target="Vw3OSJddMKpgf3IfkEd6-21">
          <mxGeometry relative="1" as="geometry" />
        </mxCell>
        <mxCell id="Vw3OSJddMKpgf3IfkEd6-67" style="edgeStyle=orthogonalEdgeStyle;rounded=0;orthogonalLoop=1;jettySize=auto;html=1;entryX=0.5;entryY=0;entryDx=0;entryDy=0;" edge="1" parent="1" source="Vw3OSJddMKpgf3IfkEd6-2" target="Vw3OSJddMKpgf3IfkEd6-36">
          <mxGeometry relative="1" as="geometry" />
        </mxCell>
        <mxCell id="Vw3OSJddMKpgf3IfkEd6-2" value="CustomCellVC" style="rounded=0;whiteSpace=wrap;html=1;" vertex="1" parent="1">
          <mxGeometry x="10" y="110" width="120" height="60" as="geometry" />
        </mxCell>
        <mxCell id="Vw3OSJddMKpgf3IfkEd6-6" value="" style="edgeStyle=orthogonalEdgeStyle;rounded=0;orthogonalLoop=1;jettySize=auto;html=1;" edge="1" parent="1" source="Vw3OSJddMKpgf3IfkEd6-4" target="Vw3OSJddMKpgf3IfkEd6-5">
          <mxGeometry relative="1" as="geometry" />
        </mxCell>
        <mxCell id="Vw3OSJddMKpgf3IfkEd6-8" value="" style="edgeStyle=orthogonalEdgeStyle;rounded=0;orthogonalLoop=1;jettySize=auto;html=1;" edge="1" parent="1" source="Vw3OSJddMKpgf3IfkEd6-4" target="Vw3OSJddMKpgf3IfkEd6-5">
          <mxGeometry relative="1" as="geometry" />
        </mxCell>
        <mxCell id="Vw3OSJddMKpgf3IfkEd6-10" value="" style="edgeStyle=orthogonalEdgeStyle;rounded=0;orthogonalLoop=1;jettySize=auto;html=1;" edge="1" parent="1" source="Vw3OSJddMKpgf3IfkEd6-4" target="Vw3OSJddMKpgf3IfkEd6-9">
          <mxGeometry relative="1" as="geometry" />
        </mxCell>
        <mxCell id="Vw3OSJddMKpgf3IfkEd6-11" value="" style="edgeStyle=orthogonalEdgeStyle;rounded=0;orthogonalLoop=1;jettySize=auto;html=1;" edge="1" parent="1" source="Vw3OSJddMKpgf3IfkEd6-4" target="Vw3OSJddMKpgf3IfkEd6-9">
          <mxGeometry relative="1" as="geometry" />
        </mxCell>
        <mxCell id="Vw3OSJddMKpgf3IfkEd6-13" value="" style="edgeStyle=orthogonalEdgeStyle;rounded=0;orthogonalLoop=1;jettySize=auto;html=1;" edge="1" parent="1" source="Vw3OSJddMKpgf3IfkEd6-4" target="Vw3OSJddMKpgf3IfkEd6-12">
          <mxGeometry relative="1" as="geometry" />
        </mxCell>
        <mxCell id="Vw3OSJddMKpgf3IfkEd6-17" value="" style="edgeStyle=orthogonalEdgeStyle;rounded=0;orthogonalLoop=1;jettySize=auto;html=1;" edge="1" parent="1" source="Vw3OSJddMKpgf3IfkEd6-4" target="Vw3OSJddMKpgf3IfkEd6-5">
          <mxGeometry relative="1" as="geometry" />
        </mxCell>
        <mxCell id="Vw3OSJddMKpgf3IfkEd6-19" value="" style="edgeStyle=orthogonalEdgeStyle;rounded=0;orthogonalLoop=1;jettySize=auto;html=1;" edge="1" parent="1" source="Vw3OSJddMKpgf3IfkEd6-4" target="Vw3OSJddMKpgf3IfkEd6-18">
          <mxGeometry relative="1" as="geometry">
            <Array as="points">
              <mxPoint x="340" y="260" />
            </Array>
          </mxGeometry>
        </mxCell>
        <mxCell id="Vw3OSJddMKpgf3IfkEd6-4" value="ViewdidLoad" style="rounded=0;whiteSpace=wrap;html=1;" vertex="1" parent="1">
          <mxGeometry x="190" y="230" width="120" height="60" as="geometry" />
        </mxCell>
        <mxCell id="Vw3OSJddMKpgf3IfkEd6-5" value="register nib" style="whiteSpace=wrap;html=1;rounded=0;" vertex="1" parent="1">
          <mxGeometry x="420" y="345" width="120" height="55" as="geometry" />
        </mxCell>
        <mxCell id="Vw3OSJddMKpgf3IfkEd6-9" value="initiate up label&lt;br&gt;(remaining time)" style="whiteSpace=wrap;html=1;rounded=0;" vertex="1" parent="1">
          <mxGeometry x="710" y="340" width="120" height="60" as="geometry" />
        </mxCell>
        <mxCell id="Vw3OSJddMKpgf3IfkEd6-24" value="" style="edgeStyle=orthogonalEdgeStyle;rounded=0;orthogonalLoop=1;jettySize=auto;html=1;" edge="1" parent="1" source="Vw3OSJddMKpgf3IfkEd6-12" target="Vw3OSJddMKpgf3IfkEd6-23">
          <mxGeometry relative="1" as="geometry" />
        </mxCell>
        <mxCell id="Vw3OSJddMKpgf3IfkEd6-12" value="start timer" style="whiteSpace=wrap;html=1;rounded=0;" vertex="1" parent="1">
          <mxGeometry x="190" y="490" width="120" height="60" as="geometry" />
        </mxCell>
        <mxCell id="Vw3OSJddMKpgf3IfkEd6-14" value="initiate bottom label" style="whiteSpace=wrap;html=1;rounded=0;" vertex="1" parent="1">
          <mxGeometry x="560" y="340" width="120" height="60" as="geometry" />
        </mxCell>
        <mxCell id="Vw3OSJddMKpgf3IfkEd6-16" style="edgeStyle=orthogonalEdgeStyle;rounded=0;orthogonalLoop=1;jettySize=auto;html=1;entryX=0.5;entryY=0;entryDx=0;entryDy=0;" edge="1" parent="1" source="Vw3OSJddMKpgf3IfkEd6-4" target="Vw3OSJddMKpgf3IfkEd6-14">
          <mxGeometry relative="1" as="geometry">
            <Array as="points">
              <mxPoint x="620" y="260" />
            </Array>
          </mxGeometry>
        </mxCell>
        <mxCell id="Vw3OSJddMKpgf3IfkEd6-18" value="Set table view data source" style="whiteSpace=wrap;html=1;rounded=0;" vertex="1" parent="1">
          <mxGeometry x="280" y="340" width="120" height="60" as="geometry" />
        </mxCell>
        <mxCell id="Vw3OSJddMKpgf3IfkEd6-21" value="stop timer" style="whiteSpace=wrap;html=1;rounded=0;" vertex="1" parent="1">
          <mxGeometry x="10" y="490" width="120" height="60" as="geometry" />
        </mxCell>
        <mxCell id="Vw3OSJddMKpgf3IfkEd6-29" value="" style="edgeStyle=orthogonalEdgeStyle;rounded=0;orthogonalLoop=1;jettySize=auto;html=1;" edge="1" parent="1" source="Vw3OSJddMKpgf3IfkEd6-23" target="Vw3OSJddMKpgf3IfkEd6-28">
          <mxGeometry relative="1" as="geometry" />
        </mxCell>
        <mxCell id="Vw3OSJddMKpgf3IfkEd6-31" value="" style="edgeStyle=orthogonalEdgeStyle;rounded=0;orthogonalLoop=1;jettySize=auto;html=1;" edge="1" parent="1" source="Vw3OSJddMKpgf3IfkEd6-23" target="Vw3OSJddMKpgf3IfkEd6-30">
          <mxGeometry relative="1" as="geometry" />
        </mxCell>
        <mxCell id="Vw3OSJddMKpgf3IfkEd6-33" value="" style="edgeStyle=orthogonalEdgeStyle;rounded=0;orthogonalLoop=1;jettySize=auto;html=1;" edge="1" parent="1" source="Vw3OSJddMKpgf3IfkEd6-23" target="Vw3OSJddMKpgf3IfkEd6-32">
          <mxGeometry relative="1" as="geometry" />
        </mxCell>
        <mxCell id="Vw3OSJddMKpgf3IfkEd6-35" value="" style="edgeStyle=orthogonalEdgeStyle;rounded=0;orthogonalLoop=1;jettySize=auto;html=1;" edge="1" parent="1" source="Vw3OSJddMKpgf3IfkEd6-23" target="Vw3OSJddMKpgf3IfkEd6-34">
          <mxGeometry relative="1" as="geometry" />
        </mxCell>
        <mxCell id="Vw3OSJddMKpgf3IfkEd6-23" value="&lt;p style=&quot;margin: 0px; font-style: normal; font-variant-caps: normal; font-stretch: normal; line-height: normal; font-family: Menlo; font-size-adjust: none; font-kerning: auto; font-variant-alternates: normal; font-variant-ligatures: normal; font-variant-numeric: normal; font-variant-east-asian: normal; font-variant-position: normal; font-feature-settings: normal; font-optical-sizing: auto; font-variation-settings: normal; color: rgb(65, 161, 192); background-color: rgb(31, 31, 36);&quot;&gt;updateTimer&lt;/p&gt;" style="whiteSpace=wrap;html=1;rounded=0;" vertex="1" parent="1">
          <mxGeometry x="260" y="600" width="130" height="60" as="geometry" />
        </mxCell>
        <mxCell id="Vw3OSJddMKpgf3IfkEd6-28" value="refresh bottom label" style="whiteSpace=wrap;html=1;rounded=0;" vertex="1" parent="1">
          <mxGeometry x="410" y="740" width="120" height="60" as="geometry" />
        </mxCell>
        <mxCell id="Vw3OSJddMKpgf3IfkEd6-30" value="refresh time table" style="whiteSpace=wrap;html=1;rounded=0;" vertex="1" parent="1">
          <mxGeometry x="265" y="740" width="120" height="60" as="geometry" />
        </mxCell>
        <mxCell id="Vw3OSJddMKpgf3IfkEd6-86" value="" style="edgeStyle=orthogonalEdgeStyle;rounded=0;orthogonalLoop=1;jettySize=auto;html=1;" edge="1" parent="1" source="Vw3OSJddMKpgf3IfkEd6-32" target="Vw3OSJddMKpgf3IfkEd6-85">
          <mxGeometry relative="1" as="geometry" />
        </mxCell>
        <mxCell id="Vw3OSJddMKpgf3IfkEd6-32" value="check whether play&lt;br&gt;sound&lt;br&gt;&lt;p style=&quot;margin: 0px; font-style: normal; font-variant-caps: normal; font-stretch: normal; line-height: normal; font-family: Menlo; font-size-adjust: none; font-kerning: auto; font-variant-alternates: normal; font-variant-ligatures: normal; font-variant-numeric: normal; font-variant-east-asian: normal; font-variant-position: normal; font-feature-settings: normal; font-optical-sizing: auto; font-variation-settings: normal; color: rgb(103, 183, 164); background-color: rgb(31, 31, 36);&quot;&gt;check&lt;/p&gt;&lt;p style=&quot;margin: 0px; font-style: normal; font-variant-caps: normal; font-stretch: normal; line-height: normal; font-family: Menlo; font-size-adjust: none; font-kerning: auto; font-variant-alternates: normal; font-variant-ligatures: normal; font-variant-numeric: normal; font-variant-east-asian: normal; font-variant-position: normal; font-feature-settings: normal; font-optical-sizing: auto; font-variation-settings: normal; color: rgb(103, 183, 164); background-color: rgb(31, 31, 36);&quot;&gt;WhenPlaySound&lt;/p&gt;" style="whiteSpace=wrap;html=1;rounded=0;" vertex="1" parent="1">
          <mxGeometry x="570" y="740" width="120" height="60" as="geometry" />
        </mxCell>
        <mxCell id="Vw3OSJddMKpgf3IfkEd6-70" value="" style="edgeStyle=orthogonalEdgeStyle;rounded=0;orthogonalLoop=1;jettySize=auto;html=1;" edge="1" parent="1" source="Vw3OSJddMKpgf3IfkEd6-34" target="Vw3OSJddMKpgf3IfkEd6-69">
          <mxGeometry relative="1" as="geometry" />
        </mxCell>
        <mxCell id="Vw3OSJddMKpgf3IfkEd6-72" value="" style="edgeStyle=orthogonalEdgeStyle;rounded=0;orthogonalLoop=1;jettySize=auto;html=1;" edge="1" parent="1" source="Vw3OSJddMKpgf3IfkEd6-34" target="Vw3OSJddMKpgf3IfkEd6-71">
          <mxGeometry relative="1" as="geometry">
            <Array as="points">
              <mxPoint x="180" y="850" />
              <mxPoint x="330" y="850" />
            </Array>
          </mxGeometry>
        </mxCell>
        <mxCell id="Vw3OSJddMKpgf3IfkEd6-34" value="refresh up label&lt;br&gt;&lt;p style=&quot;margin: 0px; font-style: normal; font-variant-caps: normal; font-stretch: normal; line-height: normal; font-family: Menlo; font-size-adjust: none; font-kerning: auto; font-variant-alternates: normal; font-variant-ligatures: normal; font-variant-numeric: normal; font-variant-east-asian: normal; font-variant-position: normal; font-feature-settings: normal; font-optical-sizing: auto; font-variation-settings: normal; color: rgb(103, 183, 164); background-color: rgb(31, 31, 36);&quot;&gt;getUpLabel&lt;/p&gt;" style="whiteSpace=wrap;html=1;rounded=0;" vertex="1" parent="1">
          <mxGeometry x="120" y="740" width="120" height="60" as="geometry" />
        </mxCell>
        <mxCell id="Vw3OSJddMKpgf3IfkEd6-39" value="" style="edgeStyle=orthogonalEdgeStyle;rounded=0;orthogonalLoop=1;jettySize=auto;html=1;" edge="1" parent="1" source="Vw3OSJddMKpgf3IfkEd6-36" target="Vw3OSJddMKpgf3IfkEd6-38">
          <mxGeometry relative="1" as="geometry" />
        </mxCell>
        <mxCell id="Vw3OSJddMKpgf3IfkEd6-41" value="" style="edgeStyle=orthogonalEdgeStyle;rounded=0;orthogonalLoop=1;jettySize=auto;html=1;" edge="1" parent="1" source="Vw3OSJddMKpgf3IfkEd6-36" target="Vw3OSJddMKpgf3IfkEd6-40">
          <mxGeometry relative="1" as="geometry" />
        </mxCell>
        <mxCell id="Vw3OSJddMKpgf3IfkEd6-36" value="Set Table" style="whiteSpace=wrap;html=1;rounded=0;" vertex="1" parent="1">
          <mxGeometry x="-310" y="320" width="120" height="60" as="geometry" />
        </mxCell>
        <mxCell id="Vw3OSJddMKpgf3IfkEd6-38" value="set number of rows" style="whiteSpace=wrap;html=1;rounded=0;" vertex="1" parent="1">
          <mxGeometry x="-180" y="420" width="120" height="60" as="geometry" />
        </mxCell>
        <mxCell id="Vw3OSJddMKpgf3IfkEd6-43" value="" style="edgeStyle=orthogonalEdgeStyle;rounded=0;orthogonalLoop=1;jettySize=auto;html=1;" edge="1" parent="1" source="Vw3OSJddMKpgf3IfkEd6-40" target="Vw3OSJddMKpgf3IfkEd6-42">
          <mxGeometry relative="1" as="geometry" />
        </mxCell>
        <mxCell id="Vw3OSJddMKpgf3IfkEd6-52" value="" style="edgeStyle=orthogonalEdgeStyle;rounded=0;orthogonalLoop=1;jettySize=auto;html=1;" edge="1" parent="1" source="Vw3OSJddMKpgf3IfkEd6-40" target="Vw3OSJddMKpgf3IfkEd6-42">
          <mxGeometry relative="1" as="geometry" />
        </mxCell>
        <mxCell id="Vw3OSJddMKpgf3IfkEd6-68" style="edgeStyle=orthogonalEdgeStyle;rounded=0;orthogonalLoop=1;jettySize=auto;html=1;entryX=0.5;entryY=0;entryDx=0;entryDy=0;" edge="1" parent="1" source="Vw3OSJddMKpgf3IfkEd6-40" target="Vw3OSJddMKpgf3IfkEd6-53">
          <mxGeometry relative="1" as="geometry" />
        </mxCell>
        <mxCell id="Vw3OSJddMKpgf3IfkEd6-40" value="set cell for row" style="whiteSpace=wrap;html=1;rounded=0;" vertex="1" parent="1">
          <mxGeometry x="-450" y="440" width="120" height="60" as="geometry" />
        </mxCell>
        <mxCell id="Vw3OSJddMKpgf3IfkEd6-45" value="" style="edgeStyle=orthogonalEdgeStyle;rounded=0;orthogonalLoop=1;jettySize=auto;html=1;" edge="1" parent="1" source="Vw3OSJddMKpgf3IfkEd6-42" target="Vw3OSJddMKpgf3IfkEd6-44">
          <mxGeometry relative="1" as="geometry" />
        </mxCell>
        <mxCell id="Vw3OSJddMKpgf3IfkEd6-66" value="" style="edgeStyle=orthogonalEdgeStyle;rounded=0;orthogonalLoop=1;jettySize=auto;html=1;exitX=0;exitY=0.5;exitDx=0;exitDy=0;" edge="1" parent="1" source="Vw3OSJddMKpgf3IfkEd6-42" target="Vw3OSJddMKpgf3IfkEd6-65">
          <mxGeometry relative="1" as="geometry" />
        </mxCell>
        <mxCell id="Vw3OSJddMKpgf3IfkEd6-42" value="set text" style="whiteSpace=wrap;html=1;rounded=0;" vertex="1" parent="1">
          <mxGeometry x="-590" y="520" width="120" height="60" as="geometry" />
        </mxCell>
        <mxCell id="Vw3OSJddMKpgf3IfkEd6-47" value="" style="edgeStyle=orthogonalEdgeStyle;rounded=0;orthogonalLoop=1;jettySize=auto;html=1;" edge="1" parent="1" source="Vw3OSJddMKpgf3IfkEd6-44" target="Vw3OSJddMKpgf3IfkEd6-46">
          <mxGeometry relative="1" as="geometry" />
        </mxCell>
        <mxCell id="Vw3OSJddMKpgf3IfkEd6-49" value="" style="edgeStyle=orthogonalEdgeStyle;rounded=0;orthogonalLoop=1;jettySize=auto;html=1;" edge="1" parent="1" source="Vw3OSJddMKpgf3IfkEd6-44" target="Vw3OSJddMKpgf3IfkEd6-48">
          <mxGeometry relative="1" as="geometry" />
        </mxCell>
        <mxCell id="Vw3OSJddMKpgf3IfkEd6-44" value="get daily time table text" style="whiteSpace=wrap;html=1;rounded=0;" vertex="1" parent="1">
          <mxGeometry x="-587.5" y="640" width="115" height="60" as="geometry" />
        </mxCell>
        <mxCell id="Vw3OSJddMKpgf3IfkEd6-46" value="getWeekNumber for the day" style="whiteSpace=wrap;html=1;rounded=0;" vertex="1" parent="1">
          <mxGeometry x="-660" y="750" width="120" height="60" as="geometry" />
        </mxCell>
        <mxCell id="Vw3OSJddMKpgf3IfkEd6-48" value="get time table" style="whiteSpace=wrap;html=1;rounded=0;" vertex="1" parent="1">
          <mxGeometry x="-520" y="750" width="120" height="60" as="geometry" />
        </mxCell>
        <mxCell id="Vw3OSJddMKpgf3IfkEd6-50" value="get row number" style="whiteSpace=wrap;html=1;rounded=0;" vertex="1" parent="1">
          <mxGeometry x="-310" y="640" width="120" height="60" as="geometry" />
        </mxCell>
        <mxCell id="Vw3OSJddMKpgf3IfkEd6-56" value="" style="edgeStyle=orthogonalEdgeStyle;rounded=0;orthogonalLoop=1;jettySize=auto;html=1;" edge="1" parent="1" source="Vw3OSJddMKpgf3IfkEd6-53" target="Vw3OSJddMKpgf3IfkEd6-55">
          <mxGeometry relative="1" as="geometry" />
        </mxCell>
        <mxCell id="Vw3OSJddMKpgf3IfkEd6-64" style="edgeStyle=orthogonalEdgeStyle;rounded=0;orthogonalLoop=1;jettySize=auto;html=1;entryX=0.5;entryY=0;entryDx=0;entryDy=0;" edge="1" parent="1" source="Vw3OSJddMKpgf3IfkEd6-53" target="Vw3OSJddMKpgf3IfkEd6-50">
          <mxGeometry relative="1" as="geometry" />
        </mxCell>
        <mxCell id="Vw3OSJddMKpgf3IfkEd6-53" value="set color" style="whiteSpace=wrap;html=1;rounded=0;" vertex="1" parent="1">
          <mxGeometry x="-450" y="520" width="120" height="60" as="geometry" />
        </mxCell>
        <mxCell id="Vw3OSJddMKpgf3IfkEd6-55" value="get daily&lt;br&gt;time table color" style="whiteSpace=wrap;html=1;rounded=0;" vertex="1" parent="1">
          <mxGeometry x="-450" y="640" width="120" height="60" as="geometry" />
        </mxCell>
        <mxCell id="Vw3OSJddMKpgf3IfkEd6-65" value="get row number" style="whiteSpace=wrap;html=1;rounded=0;" vertex="1" parent="1">
          <mxGeometry x="-740" y="640" width="120" height="60" as="geometry" />
        </mxCell>
        <mxCell id="Vw3OSJddMKpgf3IfkEd6-74" value="" style="edgeStyle=orthogonalEdgeStyle;rounded=0;orthogonalLoop=1;jettySize=auto;html=1;" edge="1" parent="1" source="Vw3OSJddMKpgf3IfkEd6-69" target="Vw3OSJddMKpgf3IfkEd6-73">
          <mxGeometry relative="1" as="geometry" />
        </mxCell>
        <mxCell id="Vw3OSJddMKpgf3IfkEd6-75" value="" style="edgeStyle=orthogonalEdgeStyle;rounded=0;orthogonalLoop=1;jettySize=auto;html=1;" edge="1" parent="1" source="Vw3OSJddMKpgf3IfkEd6-69" target="Vw3OSJddMKpgf3IfkEd6-73">
          <mxGeometry relative="1" as="geometry" />
        </mxCell>
        <mxCell id="Vw3OSJddMKpgf3IfkEd6-77" value="" style="edgeStyle=orthogonalEdgeStyle;rounded=0;orthogonalLoop=1;jettySize=auto;html=1;" edge="1" parent="1" source="Vw3OSJddMKpgf3IfkEd6-69" target="Vw3OSJddMKpgf3IfkEd6-76">
          <mxGeometry relative="1" as="geometry" />
        </mxCell>
        <mxCell id="Vw3OSJddMKpgf3IfkEd6-69" value="&lt;p style=&quot;margin: 0.0px 0.0px 0.0px 0.0px; font: 12.0px Menlo; color: #67b7a4; background-color: #1f1f24&quot;&gt;calculate&lt;/p&gt;&lt;p style=&quot;margin: 0.0px 0.0px 0.0px 0.0px; font: 12.0px Menlo; color: #67b7a4; background-color: #1f1f24&quot;&gt;Remaining&lt;/p&gt;&lt;p style=&quot;margin: 0.0px 0.0px 0.0px 0.0px; font: 12.0px Menlo; color: #67b7a4; background-color: #1f1f24&quot;&gt;ClassTime&lt;/p&gt;" style="whiteSpace=wrap;html=1;rounded=0;" vertex="1" parent="1">
          <mxGeometry y="900" width="120" height="60" as="geometry" />
        </mxCell>
        <mxCell id="Vw3OSJddMKpgf3IfkEd6-83" style="edgeStyle=orthogonalEdgeStyle;rounded=0;orthogonalLoop=1;jettySize=auto;html=1;entryX=0.5;entryY=0;entryDx=0;entryDy=0;" edge="1" parent="1" source="Vw3OSJddMKpgf3IfkEd6-71" target="Vw3OSJddMKpgf3IfkEd6-82">
          <mxGeometry relative="1" as="geometry" />
        </mxCell>
        <mxCell id="Vw3OSJddMKpgf3IfkEd6-84" style="edgeStyle=orthogonalEdgeStyle;rounded=0;orthogonalLoop=1;jettySize=auto;html=1;entryX=0.5;entryY=0;entryDx=0;entryDy=0;" edge="1" parent="1" source="Vw3OSJddMKpgf3IfkEd6-71" target="Vw3OSJddMKpgf3IfkEd6-80">
          <mxGeometry relative="1" as="geometry" />
        </mxCell>
        <mxCell id="Vw3OSJddMKpgf3IfkEd6-71" value="&lt;p style=&quot;margin: 0px; font-style: normal; font-variant-caps: normal; font-stretch: normal; line-height: normal; font-family: Menlo; font-size-adjust: none; font-kerning: auto; font-variant-alternates: normal; font-variant-ligatures: normal; font-variant-numeric: normal; font-variant-east-asian: normal; font-variant-position: normal; font-feature-settings: normal; font-optical-sizing: auto; font-variation-settings: normal; color: rgb(103, 183, 164); background-color: rgb(31, 31, 36);&quot;&gt;calculate&lt;/p&gt;&lt;p style=&quot;margin: 0px; font-style: normal; font-variant-caps: normal; font-stretch: normal; line-height: normal; font-family: Menlo; font-size-adjust: none; font-kerning: auto; font-variant-alternates: normal; font-variant-ligatures: normal; font-variant-numeric: normal; font-variant-east-asian: normal; font-variant-position: normal; font-feature-settings: normal; font-optical-sizing: auto; font-variation-settings: normal; color: rgb(103, 183, 164); background-color: rgb(31, 31, 36);&quot;&gt;Remaining&lt;/p&gt;&lt;p style=&quot;margin: 0px; font-style: normal; font-variant-caps: normal; font-stretch: normal; line-height: normal; font-family: Menlo; font-size-adjust: none; font-kerning: auto; font-variant-alternates: normal; font-variant-ligatures: normal; font-variant-numeric: normal; font-variant-east-asian: normal; font-variant-position: normal; font-feature-settings: normal; font-optical-sizing: auto; font-variation-settings: normal; color: rgb(103, 183, 164); background-color: rgb(31, 31, 36);&quot;&gt;BreakTime&lt;/p&gt;" style="whiteSpace=wrap;html=1;rounded=0;" vertex="1" parent="1">
          <mxGeometry x="270" y="900" width="120" height="60" as="geometry" />
        </mxCell>
        <mxCell id="Vw3OSJddMKpgf3IfkEd6-73" value="&lt;p style=&quot;margin: 0px; font-style: normal; font-variant-caps: normal; font-stretch: normal; line-height: normal; font-family: Menlo; font-size-adjust: none; font-kerning: auto; font-variant-alternates: normal; font-variant-ligatures: normal; font-variant-numeric: normal; font-variant-east-asian: normal; font-variant-position: normal; font-feature-settings: normal; font-optical-sizing: auto; font-variation-settings: normal; color: rgb(103, 183, 164); background-color: rgb(31, 31, 36);&quot;&gt;get&lt;/p&gt;&lt;p style=&quot;margin: 0px; font-style: normal; font-variant-caps: normal; font-stretch: normal; line-height: normal; font-family: Menlo; font-size-adjust: none; font-kerning: auto; font-variant-alternates: normal; font-variant-ligatures: normal; font-variant-numeric: normal; font-variant-east-asian: normal; font-variant-position: normal; font-feature-settings: normal; font-optical-sizing: auto; font-variation-settings: normal; color: rgb(103, 183, 164); background-color: rgb(31, 31, 36);&quot;&gt;StartEndTime&lt;/p&gt;&lt;p style=&quot;margin: 0px; font-style: normal; font-variant-caps: normal; font-stretch: normal; line-height: normal; font-family: Menlo; font-size-adjust: none; font-kerning: auto; font-variant-alternates: normal; font-variant-ligatures: normal; font-variant-numeric: normal; font-variant-east-asian: normal; font-variant-position: normal; font-feature-settings: normal; font-optical-sizing: auto; font-variation-settings: normal; color: rgb(103, 183, 164); background-color: rgb(31, 31, 36);&quot;&gt;From&lt;/p&gt;&lt;p style=&quot;margin: 0px; font-style: normal; font-variant-caps: normal; font-stretch: normal; line-height: normal; font-family: Menlo; font-size-adjust: none; font-kerning: auto; font-variant-alternates: normal; font-variant-ligatures: normal; font-variant-numeric: normal; font-variant-east-asian: normal; font-variant-position: normal; font-feature-settings: normal; font-optical-sizing: auto; font-variation-settings: normal; color: rgb(103, 183, 164); background-color: rgb(31, 31, 36);&quot;&gt;DailyTimeTable&lt;/p&gt;" style="whiteSpace=wrap;html=1;rounded=0;" vertex="1" parent="1">
          <mxGeometry x="-80" y="1030" width="120" height="60" as="geometry" />
        </mxCell>
        <mxCell id="Vw3OSJddMKpgf3IfkEd6-76" value="&lt;p style=&quot;margin: 0px; font-style: normal; font-variant-caps: normal; font-stretch: normal; line-height: normal; font-family: Menlo; font-size-adjust: none; font-kerning: auto; font-variant-alternates: normal; font-variant-ligatures: normal; font-variant-numeric: normal; font-variant-east-asian: normal; font-variant-position: normal; font-feature-settings: normal; font-optical-sizing: auto; font-variation-settings: normal; color: rgb(103, 183, 164); background-color: rgb(31, 31, 36);&quot;&gt;HowMany&lt;/p&gt;&lt;p style=&quot;margin: 0px; font-style: normal; font-variant-caps: normal; font-stretch: normal; line-height: normal; font-family: Menlo; font-size-adjust: none; font-kerning: auto; font-variant-alternates: normal; font-variant-ligatures: normal; font-variant-numeric: normal; font-variant-east-asian: normal; font-variant-position: normal; font-feature-settings: normal; font-optical-sizing: auto; font-variation-settings: normal; color: rgb(103, 183, 164); background-color: rgb(31, 31, 36);&quot;&gt;Minutes&lt;/p&gt;&lt;p style=&quot;margin: 0px; font-style: normal; font-variant-caps: normal; font-stretch: normal; line-height: normal; font-family: Menlo; font-size-adjust: none; font-kerning: auto; font-variant-alternates: normal; font-variant-ligatures: normal; font-variant-numeric: normal; font-variant-east-asian: normal; font-variant-position: normal; font-feature-settings: normal; font-optical-sizing: auto; font-variation-settings: normal; color: rgb(103, 183, 164); background-color: rgb(31, 31, 36);&quot;&gt;WeAreFrom&lt;/p&gt;&lt;p style=&quot;margin: 0px; font-style: normal; font-variant-caps: normal; font-stretch: normal; line-height: normal; font-family: Menlo; font-size-adjust: none; font-kerning: auto; font-variant-alternates: normal; font-variant-ligatures: normal; font-variant-numeric: normal; font-variant-east-asian: normal; font-variant-position: normal; font-feature-settings: normal; font-optical-sizing: auto; font-variation-settings: normal; color: rgb(103, 183, 164); background-color: rgb(31, 31, 36);&quot;&gt;ThisTime&lt;/p&gt;" style="whiteSpace=wrap;html=1;rounded=0;" vertex="1" parent="1">
          <mxGeometry x="60" y="1030" width="120" height="60" as="geometry" />
        </mxCell>
        <mxCell id="Vw3OSJddMKpgf3IfkEd6-80" value="&lt;p style=&quot;margin: 0px; font-style: normal; font-variant-caps: normal; font-stretch: normal; line-height: normal; font-family: Menlo; font-size-adjust: none; font-kerning: auto; font-variant-alternates: normal; font-variant-ligatures: normal; font-variant-numeric: normal; font-variant-east-asian: normal; font-variant-position: normal; font-feature-settings: normal; font-optical-sizing: auto; font-variation-settings: normal; color: rgb(103, 183, 164); background-color: rgb(31, 31, 36);&quot;&gt;get&lt;/p&gt;&lt;p style=&quot;margin: 0px; font-style: normal; font-variant-caps: normal; font-stretch: normal; line-height: normal; font-family: Menlo; font-size-adjust: none; font-kerning: auto; font-variant-alternates: normal; font-variant-ligatures: normal; font-variant-numeric: normal; font-variant-east-asian: normal; font-variant-position: normal; font-feature-settings: normal; font-optical-sizing: auto; font-variation-settings: normal; color: rgb(103, 183, 164); background-color: rgb(31, 31, 36);&quot;&gt;StartEndTime&lt;/p&gt;&lt;p style=&quot;margin: 0px; font-style: normal; font-variant-caps: normal; font-stretch: normal; line-height: normal; font-family: Menlo; font-size-adjust: none; font-kerning: auto; font-variant-alternates: normal; font-variant-ligatures: normal; font-variant-numeric: normal; font-variant-east-asian: normal; font-variant-position: normal; font-feature-settings: normal; font-optical-sizing: auto; font-variation-settings: normal; color: rgb(103, 183, 164); background-color: rgb(31, 31, 36);&quot;&gt;From&lt;/p&gt;&lt;p style=&quot;margin: 0px; font-style: normal; font-variant-caps: normal; font-stretch: normal; line-height: normal; font-family: Menlo; font-size-adjust: none; font-kerning: auto; font-variant-alternates: normal; font-variant-ligatures: normal; font-variant-numeric: normal; font-variant-east-asian: normal; font-variant-position: normal; font-feature-settings: normal; font-optical-sizing: auto; font-variation-settings: normal; color: rgb(103, 183, 164); background-color: rgb(31, 31, 36);&quot;&gt;DailyTimeTable&lt;/p&gt;" style="whiteSpace=wrap;html=1;rounded=0;" vertex="1" parent="1">
          <mxGeometry x="210" y="1030" width="120" height="60" as="geometry" />
        </mxCell>
        <mxCell id="Vw3OSJddMKpgf3IfkEd6-82" value="&lt;p style=&quot;margin: 0px; font-style: normal; font-variant-caps: normal; font-stretch: normal; line-height: normal; font-family: Menlo; font-size-adjust: none; font-kerning: auto; font-variant-alternates: normal; font-variant-ligatures: normal; font-variant-numeric: normal; font-variant-east-asian: normal; font-variant-position: normal; font-feature-settings: normal; font-optical-sizing: auto; font-variation-settings: normal; color: rgb(103, 183, 164); background-color: rgb(31, 31, 36);&quot;&gt;HowMany&lt;/p&gt;&lt;p style=&quot;margin: 0px; font-style: normal; font-variant-caps: normal; font-stretch: normal; line-height: normal; font-family: Menlo; font-size-adjust: none; font-kerning: auto; font-variant-alternates: normal; font-variant-ligatures: normal; font-variant-numeric: normal; font-variant-east-asian: normal; font-variant-position: normal; font-feature-settings: normal; font-optical-sizing: auto; font-variation-settings: normal; color: rgb(103, 183, 164); background-color: rgb(31, 31, 36);&quot;&gt;Minutes&lt;/p&gt;&lt;p style=&quot;margin: 0px; font-style: normal; font-variant-caps: normal; font-stretch: normal; line-height: normal; font-family: Menlo; font-size-adjust: none; font-kerning: auto; font-variant-alternates: normal; font-variant-ligatures: normal; font-variant-numeric: normal; font-variant-east-asian: normal; font-variant-position: normal; font-feature-settings: normal; font-optical-sizing: auto; font-variation-settings: normal; color: rgb(103, 183, 164); background-color: rgb(31, 31, 36);&quot;&gt;WeAreFrom&lt;/p&gt;&lt;p style=&quot;margin: 0px; font-style: normal; font-variant-caps: normal; font-stretch: normal; line-height: normal; font-family: Menlo; font-size-adjust: none; font-kerning: auto; font-variant-alternates: normal; font-variant-ligatures: normal; font-variant-numeric: normal; font-variant-east-asian: normal; font-variant-position: normal; font-feature-settings: normal; font-optical-sizing: auto; font-variation-settings: normal; color: rgb(103, 183, 164); background-color: rgb(31, 31, 36);&quot;&gt;ThisTime&lt;/p&gt;" style="whiteSpace=wrap;html=1;rounded=0;" vertex="1" parent="1">
          <mxGeometry x="350" y="1030" width="120" height="60" as="geometry" />
        </mxCell>
        <mxCell id="Vw3OSJddMKpgf3IfkEd6-85" value="calculate&lt;br&gt;&lt;p style=&quot;margin: 0px; font-style: normal; font-variant-caps: normal; font-stretch: normal; line-height: normal; font-family: Menlo; font-size-adjust: none; font-kerning: auto; font-variant-alternates: normal; font-variant-ligatures: normal; font-variant-numeric: normal; font-variant-east-asian: normal; font-variant-position: normal; font-feature-settings: normal; font-optical-sizing: auto; font-variation-settings: normal; color: rgb(103, 183, 164); background-color: rgb(31, 31, 36);&quot;&gt;calculate&lt;/p&gt;&lt;p style=&quot;margin: 0px; font-style: normal; font-variant-caps: normal; font-stretch: normal; line-height: normal; font-family: Menlo; font-size-adjust: none; font-kerning: auto; font-variant-alternates: normal; font-variant-ligatures: normal; font-variant-numeric: normal; font-variant-east-asian: normal; font-variant-position: normal; font-feature-settings: normal; font-optical-sizing: auto; font-variation-settings: normal; color: rgb(103, 183, 164); background-color: rgb(31, 31, 36);&quot;&gt;Remaining&lt;/p&gt;&lt;p style=&quot;margin: 0px; font-style: normal; font-variant-caps: normal; font-stretch: normal; line-height: normal; font-family: Menlo; font-size-adjust: none; font-kerning: auto; font-variant-alternates: normal; font-variant-ligatures: normal; font-variant-numeric: normal; font-variant-east-asian: normal; font-variant-position: normal; font-feature-settings: normal; font-optical-sizing: auto; font-variation-settings: normal; color: rgb(103, 183, 164); background-color: rgb(31, 31, 36);&quot;&gt;ClassTime&lt;/p&gt;" style="whiteSpace=wrap;html=1;rounded=0;" vertex="1" parent="1">
          <mxGeometry x="570" y="880" width="120" height="60" as="geometry" />
        </mxCell>
      </root>
    </mxGraphModel>
  </diagram>
</mxfile>
